# AST/ASF file generated using VICON BodyLanguage
# -----------------------------------------------
:version 1.10
:name VICON
:units
  mass 1.0
  length 0.45
  angle deg
:documentation
   .ast/.asf automatically generated from VICON data using
   VICON BodyBuilder and BodyLanguage model FoxedUp or BRILLIANT.MOD
:root
   order TX TY TZ RX RY RZ
   axis XYZ
   position 0 0 0  
   orientation 0 0 0 
:bonedata
  begin
     id 1 
     name lhipjoint
     direction 0.722297 -0.617336 0.311742 
     length 2.6635 
     axis 0 0 0  XYZ
  end
  begin
     id 2 
     name lfemur
     direction 0.34202 -0.939693 0  
     length 7.39349  
     axis 0 0 20  XYZ
    dof rx ry rz
    limits (-160.0 20.0)
           (-70.0 70.0)
           (-60.0 70.0)
  end
  begin
     id 3 
     name ltibia
     direction 0.34202 -0.939693 0   
     length 7.36294   
     axis 0 0 20   XYZ
    dof rx
    limits (-10.0 170.0)
  end
  begin
     id 4 
     name lfoot
     direction 0.104879 -0.288152 0.951824   
     length 2.16981   
     axis -90 7.62852e-016 20   XYZ
    dof rx rz
    limits (-45.0 90.0)
           (-70.0 20.0)
  end
  begin
     id 5 
     name ltoes
     direction 1.53586e-011 -4.21895e-011 1   
     length 1.08218   
     axis -90 7.62852e-016 20   XYZ
    dof rx
    limits (-90.0 20.0)
  end
  begin
     id 6 
     name rhipjoint
     direction -0.75102 -0.589393 0.297631   
     length 2.78977  
     axis 0 0 0  XYZ 
  end
  begin
     id 7 
     name rfemur
     direction -0.34202 -0.939693 0   
     length 7.46076   
     axis 0 0 -20   XYZ
    dof rx ry rz
    limits (-160.0 20.0)
           (-70.0 70.0)
           (-70.0 60.0)
  end
  begin
     id 8 
     name rtibia
     direction -0.34202 -0.939693 0   
     length 7.31726   
     axis 0 0 -20   XYZ
    dof rx
    limits (-10.0 170.0)
 end
 begin
     id 9 
     name rfoot
     direction -0.107991 -0.296704 0.948844   
     length 2.09388  
     axis -90 -7.62852e-016 -20   XYZ
    dof rx rz
    limits (-45.0 90.0)
           (-20.0 70.0)
  end
  begin
     id 10 
     name rtoes
     direction -1.53559e-011 -4.21911e-011 1   
     length 1.04433   
     axis -90 -7.62852e-016 -20   XYZ
    dof rx
    limits (-90.0 20.0)
  end
  begin
     id 11 
     name lowerback
     direction 0.0165164 0.98272 0.184358   
     length 1.71896   
     axis 0 0 0   XYZ
    dof rx ry rz
    limits (-20.0 45.0)
           (-30.0 30.0)
           (-30.0 30.0)
  end
  begin
     id 12 
     name upperback
     direction -0.00887249 0.992297 0.123566   
     length 1.71504   
     axis 0 0 0   XYZ
    dof rx ry rz
    limits (-20.0 45.0)
           (-30.0 30.0)
           (-30.0 30.0)
  end
  begin
     id 13 
     name thorax
     direction -0.0157026 0.998908 0.0440032   
     length 1.77022   
     axis 0 0 0   XYZ
    dof rx ry rz
    limits (-20.0 45.0)
           (-30.0 30.0)
           (-30.0 30.0)
  end
  begin
     id 14 
     name lowerneck
     direction -0.0238856 0.998137 0.0561411   
     length 1.89341   
     axis 0 0 0   XYZ
    dof rx ry rz
    limits (-20.0 45.0)
           (-30.0 30.0)
           (-30.0 30.0)
  end
  begin
     id 15 
     name upperneck
     direction 0.0276574 0.952253 -0.304056   
     length 1.86999   
     axis 0 0 0   XYZ
    dof rx ry rz
    limits (-20.0 45.0)
           (-30.0 30.0)
           (-30.0 30.0)
  end
  begin
     id 16
     name head
     direction 0.00800083 0.994258 -0.106712  
     length 1.91492  
     axis 0 0 0   XYZ
    dof rx ry rz
    limits (-20.0 45.0)
           (-30.0 30.0)
           (-30.0 30.0)
  end
  begin
     id 17 
     name lclavicle
     direction 0.97203 0.225407 0.06595  
     length 3.34889  
     axis 0 0 0   XYZ
    dof ry rz
    limits (-20.0 10.0)
           (0.0 20.0)
  end
  begin
     id 18 
     name lhumerus
     direction 1 -4.48973e-011 2.20267e-027   
     length 4.85645   
     axis 180 -30 -90   XYZ
    dof rx ry rz
    limits (-60.0 90.0)
           (-90.0 90.0)
           (-90.0 90.0)
  end
  begin
     id 19
     name lradius
     direction 1 -4.4897e-011 4.60472e-027   
     length 2.79874   
     axis 180 -30 -90   XYZ
    dof rx
    limits (-10.0 170.0)
  end
  begin
     id 20
     name lwrist
     direction 1 -4.48952e-011 1.14928e-026   
     length 1.39937   
     axis -6.29373e-015 90 90   XYZ
    dof ry
    limits (-180.0 0.0)
 end
  begin
     id 21 
     name lhand
     direction 1 -4.48967e-011 2.29886e-026   
     length 0.573398   
     axis -1.46689e-014 90 90   XYZ
    dof rx rz
    limits (-90.0 90.0)
           (-45.0 45.0)
  end
  begin
     id 22 
     name lfingers
     direction 1 -4.48955e-011 4.59726e-026   
     length 0.462289   
     axis -2.93383e-014 90 90   XYZ
    dof rx
    limits (0.0 90.0)
  end
  begin
     id 23
     name lthumb
     direction 0.707107 -6.34866e-011 0.707107   
     length 0.663757   
     axis -90 45 5.69224e-014   XYZ
    dof rx rz
    limits (-45.0 45.0)
           (-45.0 45.0)
  end
  begin
     id 24 
     name rclavicle
     direction -0.981571 0.157346 0.108443   
     length 3.35257  
     axis 0 0 0   XYZ 
    dof ry rz
    limits (-10.0 20.0)
           (-20.0 0.0)
  end
  begin
     id 25 
     name rhumerus
     direction -1 -4.48967e-011 8.58308e-029  
     length 4.67018   
     axis 180 30 90   XYZ
    dof rx ry rz
    limits (-90.0 60.0)
           (-90.0 90.0)
           (-90.0 90.0)
  end
  begin
     id 26 
     name rradius
     direction -1 -4.48958e-011 4.52548e-027   
     length 2.65534   
     axis 180 30 90   XYZ
    dof rx
    limits (-10.0 170.0)
  end
  begin
     id 27 
     name rwrist
     direction -1 -4.48977e-011 1.14952e-026   
     length 1.32767   
     axis -6.29373e-015 -90 -90   XYZ
    dof ry
    limits (-180.0 0.0)
  end
  begin
     id 28
     name rhand
     direction -1 -4.48924e-011 2.29804e-026   
     length 0.594069   
     axis -1.46689e-014 -90 -90   XYZ
    dof rx rz
    limits (-90.0 90.0)
           (-45.0 45.0)
  end
  begin
     id 29
     name rfingers
     direction -1 -4.48998e-011 4.59888e-026   
     length 0.478954   
     axis -2.93383e-014 -90 -90   XYZ
    dof rx
    limits (0.0 90.0)
  end
  begin
     id 30
     name rthumb
     direction -0.707107 -6.34933e-011 0.707107   
     length 0.687685   
     axis -90 -45 -5.69224e-014   XYZ
    dof rx rz
    limits (-45.0 45.0)
           (-45.0 45.0)
  end
:hierarchy
  begin
    root lhipjoint rhipjoint lowerback
    lhipjoint lfemur
    lfemur ltibia
    ltibia lfoot
    lfoot ltoes
    rhipjoint rfemur
    rfemur rtibia
    rtibia rfoot
    rfoot rtoes
    lowerback upperback
    upperback thorax
    thorax lowerneck lclavicle rclavicle
    lowerneck upperneck
    upperneck head
    lclavicle lhumerus
    lhumerus lradius
    lradius lwrist
    lwrist lhand lthumb
    lhand lfingers
    rclavicle rhumerus
    rhumerus rradius
    rradius rwrist
    rwrist rhand rthumb
    rhand rfingers
  end

#!OML:ASF E:\pregnant2\Project 1\Capture day 1\Session 1\pregnant2.ASF
:FULLY-SPECIFIED
:DEGREES
302
root 5.15909 19.237 3.28572 -151.229 4.89572 179.196
lowerback -6.52137 -0.989996 -0.125101
upperback -12.3826 0.600262 1.74376
thorax -9.50076 1.19746 1.78556
lowerneck -12.2289 -6.7034 -3.40526
upperneck 49.1336 3.98603 -5.9459
head 23.4102 3.04864 -0.540833
rclavicle -1.2365e-014 3.65764e-014
rhumerus -45.7675 11.9818 -77.6355
rradius 48.662
rwrist 2.26421
rhand -13.8493 -17.1698
rfingers 7.12502
rthumb 12.2744 -46.7895
lclavicle -1.2365e-014 3.65764e-014
lhumerus -49.0363 -1.77989 86.4307
lradius 40.8961
lwrist 1.1738
lhand -10.0874 28.5508
lfingers 7.12502
lthumb 15.8995 57.9181
rfemur -51.4631 7.96727 23.3641
rtibia 40.6637
rfoot -17.8688 -12.0886
rtoes 2.54615
lfemur -64.4836 -1.21894 -24.6384
ltibia 71.5018
lfoot -8.71452 9.8072
ltoes -15.8463
303
root 5.16005 19.2503 3.21591 -151.272 4.86671 179.196
lowerback -6.55981 -0.979277 -0.0491232
upperback -12.3381 0.592703 1.63134
thorax -9.42443 1.17387 1.62499
lowerneck -12.4355 -6.65986 -3.26123
upperneck 49.1615 3.97393 -5.89576
head 23.5161 3.06694 -0.545368
rclavicle -4.34531e-015 -3.4191e-014
rhumerus -45.6685 11.9605 -77.8488
rradius 48.5967
rwrist 2.27608
rhand -13.798 -17.4865
rfingers 7.12502
rthumb 12.3239 -47.1033
lclavicle -4.34531e-015 -3.4191e-014
lhumerus -48.8893 -1.58304 86.1071
lradius 40.7232
lwrist 0.927635
lhand -9.78992 28.5919
lfingers 7.12502
lthumb 16.1859 57.9362
rfemur -51.0294 8.23864 23.2172
rtibia 40.4924
rfoot -18.1313 -12.459
rtoes 2.48523
lfemur -64.6416 -1.40027 -24.5818
ltibia 70.3637
lfoot -8.99069 10.3128
ltoes -15.7256
304
root 5.16712 19.2581 3.16203 -151.331 4.82975 179.031
lowerback -6.61077 -0.998314 -0.313004
upperback -12.3648 0.575247 1.58878
thorax -9.42427 1.19133 1.72688
lowerneck -12.2128 -6.72012 -3.43809
upperneck 49.1194 3.86582 -5.80558
head 23.3677 3.01015 -0.483079
rclavicle -6.34247e-015 -1.66979e-014
rhumerus -45.9291 12.0393 -77.8925
rradius 48.7879
rwrist 2.19073
rhand -13.7961 -17.2723
rfingers 7.12502
rthumb 12.3257 -46.889
lclavicle -6.34247e-015 -1.66979e-014
lhumerus -48.8953 -1.50292 86.0666
lradius 40.5072
lwrist 0.799642
lhand -9.77128 28.6223
lfingers 7.12502
lthumb 16.2039 57.9651
rfemur -50.7092 8.62108 22.8307
rtibia 40.3556
rfoot -18.3845 -12.9855
rtoes 2.8334
lfemur -64.8101 -1.63034 -24.6516
ltibia 69.106
lfoot -9.16044 10.7692
ltoes -15.8201
305
root 5.1665 19.2707 3.09616 -151.358 4.70925 179.063
lowerback -6.69858 -0.982259 -0.16561
upperback -12.4033 0.606682 1.50701
thorax -9.41681 1.19568 1.55643
lowerneck -12.0879 -6.76298 -3.45099
upperneck 49.1559 3.81251 -5.76021
head 23.3448 3.00913 -0.462337
rclavicle -1.31136e-014 -5.56597e-015
rhumerus -46.0879 12.032 -78.0507
rradius 48.7237
rwrist 2.1774
rhand -13.5714 -17.6897
rfingers 7.12502
rthumb 12.5423 -47.2933
lclavicle -1.31136e-014 -5.56597e-015
lhumerus -48.8904 -1.53891 85.9612
lradius 40.2396
lwrist 0.830547
lhand -9.75607 28.5854
lfingers 7.12502
lthumb 16.2185 57.927
rfemur -50.2902 8.80794 22.7714
rtibia 40.1844
rfoot -18.6403 -13.3483
rtoes 3.08401
lfemur -64.9103 -1.87022 -24.4884
ltibia 67.7786
lfoot -9.48442 11.2133
ltoes -15.4102
306
root 5.17006 19.2795 3.03221 -151.348 4.70762 178.958
lowerback -6.76906 -1.02392 -0.389373
upperback -12.4283 0.561027 1.50151
thorax -9.40304 1.19768 1.6761
lowerneck -12.0503 -6.7634 -3.51064
upperneck 49.151 3.85369 -5.78048
head 23.331 3.01461 -0.451646
rclavicle -9.62087e-016 2.14687e-014
rhumerus -46.243 12.2532 -78.1739
rradius 48.8148
rwrist 2.18248
rhand -13.7799 -17.2509
rfingers 7.12502
rthumb 12.3413 -46.8667
lclavicle -9.62087e-016 2.14687e-014
lhumerus -48.8736 -1.28915 85.8511
lradius 40.0458
lwrist 0.640702
lhand -9.9405 28.3974
lfingers 7.12502
lthumb 16.0409 57.7533
rfemur -49.9788 9.09218 22.5037
rtibia 40.024
rfoot -18.8874 -13.6931
rtoes 3.31216
lfemur -64.9857 -2.06571 -24.5138
ltibia 66.328
lfoot -9.56393 11.6413
ltoes -15.5654
307
root 5.17189 19.2904 2.96664 -151.327 4.61603 178.971
lowerback -6.9241 -1.03312 -0.399561
upperback -12.4155 0.553309 1.48706
thorax -9.29788 1.1961 1.668
lowerneck -12.069 -6.7778 -3.63027
upperneck 49.1354 3.78228 -5.66036
head 23.3111 2.97159 -0.378398
rclavicle -1.36944e-014 2.8625e-014
rhumerus -46.2913 12.3197 -78.2695
rradius 48.7232
rwrist 2.44571
rhand -13.7 -17.0931
rfingers 7.12502
rthumb 12.4183 -46.7042
lclavicle -1.36944e-014 2.8625e-014
lhumerus -48.767 -1.07531 85.7062
lradius 39.8673
lwrist 0.398264
lhand -9.63444 28.6363
lfingers 7.12502
lthumb 16.3356 57.9683
rfemur -49.6133 9.28981 22.4274
rtibia 39.8112
rfoot -19.1432 -13.9857
rtoes 3.41776
lfemur -65.0304 -2.28146 -24.3486
ltibia 64.7803
lfoot -9.68607 11.9901
ltoes -15.4831
308
root 5.17089 19.3021 2.89719 -151.27 4.5133 179.008
lowerback -7.06474 -1.05181 -0.33816
upperback -12.5009 0.559729 1.47335
thorax -9.31439 1.20773 1.61759
lowerneck -11.9491 -6.80905 -3.61944
upperneck 49.1519 3.80075 -5.73417
head 23.2856 2.98949 -0.412962
rclavicle 1.58717e-015 -1.31198e-014
rhumerus -46.618 12.45 -78.4403
rradius 48.7687
rwrist 2.44366
rhand -13.6885 -17.0881
rfingers 7.12502
rthumb 12.4294 -46.6986
lclavicle 1.58717e-015 -1.31198e-014
lhumerus -48.8901 -0.910191 85.6063
lradius 39.7117
lwrist 0.372672
lhand -9.92971 28.4294
lfingers 7.12502
lthumb 16.0513 57.7845
rfemur -49.2495 9.40477 22.4128
rtibia 39.5814
rfoot -19.4555 -14.2139
rtoes 3.51154
lfemur -65.0371 -2.52002 -24.139
ltibia 63.1401
lfoot -9.81939 12.1394
ltoes -15.3193
309
root 5.17412 19.314 2.83254 -151.323 4.54563 178.938
lowerback -7.16436 -1.03469 -0.499891
upperback -12.4347 0.566495 1.4188
thorax -9.18025 1.21565 1.65254
lowerneck -12.0058 -6.80929 -3.68546
upperneck 49.1204 3.73778 -5.64395
head 23.2673 2.95208 -0.366521
rclavicle -2.41803e-015 -5.56597e-015
rhumerus -46.5409 12.5451 -78.5654
rradius 48.5815
rwrist 2.39383
rhand -13.6978 -16.891
rfingers 7.12502
rthumb 12.4204 -46.502
lclavicle -2.41803e-015 -5.56597e-015
lhumerus -48.7393 -0.783011 85.5062
lradius 39.5151
lwrist 0.379055
lhand -10.0659 28.2905
lfingers 7.12502
lthumb 15.9202 57.6561
rfemur -48.8168 9.6577 22.218
rtibia 39.3279
rfoot -19.6569 -14.4984
rtoes 3.76656
lfemur -64.8621 -2.71844 -24.0345
ltibia 61.3633
lfoot -10.0873 12.3192
ltoes -15.6798
310
root 5.17348 19.3252 2.76245 -151.279 4.44313 179.026
lowerback -7.34292 -1.01786 -0.394444
upperback -12.4624 0.606601 1.39988
thorax -9.10987 1.23341 1.57382
lowerneck -11.9267 -6.84161 -3.76948
upperneck 49.1078 3.67214 -5.57847
head 23.2146 2.92321 -0.326911
rclavicle -6.71209e-015 3.22031e-014
rhumerus -46.7921 12.584 -78.7072
rradius 48.6105
rwrist 2.39283
rhand -13.653 -16.8582
rfingers 7.12502
rthumb 12.4637 -46.4665
lclavicle -6.71209e-015 3.22031e-014
lhumerus -48.7854 -0.547743 85.3531
lradius 39.4544
lwrist 0.219901
lhand -10.0948 28.3529
lfingers 7.12502
lthumb 15.8923 57.7208
rfemur -48.3992 9.76761 22.2801
rtibia 39.0347
rfoot -19.8662 -14.66
rtoes 3.91962
lfemur -64.7401 -2.93322 -23.73
ltibia 59.5337
lfoot -10.1994 12.2941
ltoes -15.6648
